<svg class="svg-icon" style="width: 1em;height: 1em;vertical-align: middle;fill: currentColor;overflow: hidden;" viewBox="0 0 1024 1024" version="1.1" xmlns="http://www.w3.org/2000/svg"><path d="M578.986667 924.16a486.826667 486.826667 0 0 0 218.026666-189.44 42.666667 42.666667 0 0 0-12.8-60.16l-42.666666-26.88a10.666667 10.666667 0 0 0-14.933334 3.413333c-65.706667 110.08-158.293333 178.346667-260.266666 178.346667-91.733333 0-175.36-55.04-239.36-145.493333a45.226667 45.226667 0 0 0-2.986667 50.773333 500.053333 500.053333 0 0 0 91.733333 109.226667 492.373333 492.373333 0 0 0 130.56 82.773333 178.773333 178.773333 0 0 0 132.693334-2.56z" fill="#939598" /><path d="M512 85.333333C378.88 85.333333 271.36 231.253333 271.36 412.16a418.56 418.56 0 0 0 35.413333 170.666667A44.8 44.8 0 0 1 292.266667 640l-17.066667 11.093333c-7.68 5.12-8.96 12.373333-5.546667 17.066667A253.013333 253.013333 0 0 0 469.333333 786.346667c100.693333 0 190.72-79.36 249.173334-203.093334l7.68-18.773333a268.8 268.8 0 0 0 10.24-32.853333 46.506667 46.506667 0 0 0 2.133333-7.253334 260.693333 260.693333 0 0 0 6.826667-31.573333 281.173333 281.173333 0 0 0 5.12-37.973333v-39.253334C752.64 231.253333 645.12 85.333333 512 85.333333z m0 481.28a153.173333 153.173333 0 0 1-153.173333-154.453333c0-88.746667 100.266667-190.72 138.24-226.986667a21.76 21.76 0 0 1 29.866666 0c37.973333 36.266667 138.24 138.666667 138.24 226.986667A153.173333 153.173333 0 0 1 512 565.333333z" fill="#383838" /></svg>